<svg width="212" height="34" viewBox="0 0 212 34" fill="none" xmlns="http://www.w3.org/2000/svg">
<path d="M3.39206 33.3346H0L0 7.92714L3.39206 7.92714L3.39206 10.722H3.70043C5.19088 8.28285 7.70923 7.26655 10.4332 7.26655C13.8766 7.26655 16.4464 8.89262 17.8854 11.7891H18.2452C19.9412 8.58774 22.9221 7.26655 26.1086 7.26655C31.5565 7.26655 34.9999 11.0777 34.9999 17.4295L34.9999 33.3346H31.6079L31.6079 17.582C31.6079 12.9578 29.3465 10.4679 25.4405 10.4679C21.4831 10.4679 19.2217 13.0595 19.2217 17.582L19.2217 33.3346H15.7782L15.7782 17.582C15.7782 12.9578 13.5683 10.4679 9.61085 10.4679C5.70483 10.4679 3.39206 13.0595 3.39206 17.582L3.39206 33.3346Z" fill="#1D2950"/>
<path d="M52.6348 33.9952C44.8228 33.9952 39.2721 28.5072 39.2721 20.6309C39.2721 12.7546 44.8228 7.26655 52.6348 7.26655C60.4468 7.26655 65.9975 12.7546 65.9975 20.6309C65.9975 28.5072 60.4468 33.9952 52.6348 33.9952ZM52.6348 30.7939C58.5452 30.7939 62.4512 26.7795 62.4512 20.6309C62.4512 14.4823 58.5452 10.4679 52.6348 10.4679C46.7244 10.4679 42.8184 14.4823 42.8184 20.6309C42.8184 26.7795 46.7244 30.7939 52.6348 30.7939Z" fill="#1D2950"/>
<path d="M73.8874 33.3346H70.4953V7.92714H73.8874V11.0269H74.1957C75.8918 8.38447 78.9241 7.26655 82.0592 7.26655C88.1238 7.26655 92.0298 11.2809 92.0298 17.9885V33.3346H88.6377V18.0901C88.6377 13.1611 85.9652 10.4679 81.2882 10.4679C76.6113 10.4679 73.8874 13.2627 73.8874 18.0901V33.3346Z" fill="#1D2950"/>
<path d="M163.943 33.9952C156.388 33.9952 151.146 28.3548 151.146 20.6309C151.146 12.9578 156.388 7.26655 163.943 7.26655C174.016 7.26655 177.46 14.9819 177.46 20.6309V33.3346H174.016V29.117H173.708C171.652 32.674 167.592 33.9952 163.943 33.9952ZM164.354 30.7939C170.213 30.7939 174.016 26.7795 174.016 20.6309C174.016 14.5331 170.213 10.4679 164.354 10.4679C158.547 10.4679 154.692 14.5331 154.692 20.6309C154.692 26.7795 158.547 30.7939 164.354 30.7939Z" fill="#1D2950"/>
<path d="M187.116 33.3346H183.724V7.92714L187.116 7.92714V11.3317H187.424C188.555 8.63855 190.508 7.7747 194.003 7.7747H195.596V11.0777L192.667 11.0777C188.607 11.0777 187.116 14.1774 187.116 18.1918V33.3346Z" fill="#1D2950"/>
<path d="M212 7.92714V11.0269H204.908V27.6942C204.908 29.676 205.576 30.2349 207.477 30.2349L212 30.2349V33.3346H207.272C202.955 33.3346 201.515 31.9118 201.515 27.7958V11.0269H198.555V7.92714H201.515V0L204.908 0V7.92714L212 7.92714Z" fill="#1D2950"/>
<path fill-rule="evenodd" clip-rule="evenodd" d="M133.151 10.5594L110.075 10.5594C109.412 10.5594 109.181 10.56 108.999 10.5673C103.963 10.7688 100.193 14.7035 99.9861 19.6139C99.9787 19.7907 99.978 20.0163 99.978 20.6629C99.978 21.3096 99.9787 21.5352 99.9861 21.712C100.193 26.6224 103.963 30.5571 108.999 30.7586C109.181 30.7659 109.412 30.7665 110.075 30.7665L133.151 30.7665C133.814 30.7665 134.046 30.7659 134.227 30.7586C139.263 30.5571 143.033 26.6224 143.24 21.712C143.247 21.5352 143.248 21.3096 143.248 20.6629C143.248 20.0163 143.247 19.7907 143.24 19.6139C143.033 14.7035 139.263 10.7688 134.227 10.5673C134.046 10.56 133.814 10.5594 133.151 10.5594ZM96.4073 19.4813C96.3963 19.7411 96.3964 20.0484 96.3964 20.6629C96.3964 21.2775 96.3963 21.5848 96.4073 21.8446C96.6847 28.4366 102.102 33.7188 108.863 33.9893C109.13 34 109.445 34 110.075 34L133.151 34C133.781 34 134.096 34 134.363 33.9893C141.124 33.7188 146.541 28.4366 146.819 21.8446C146.83 21.5848 146.83 21.2775 146.83 20.6629C146.83 20.0484 146.83 19.7411 146.819 19.4813C146.541 12.8893 141.124 7.60708 134.363 7.33656C134.096 7.3259 133.781 7.3259 133.151 7.3259L110.075 7.3259C109.445 7.3259 109.13 7.3259 108.863 7.33656C102.102 7.60708 96.6847 12.8893 96.4073 19.4813Z" fill="#1D2950"/>
</svg>
